<svg width="1286" height="203" viewBox="0 0 1286 203" fill="none" xmlns="http://www.w3.org/2000/svg">
<path fill-rule="evenodd" clip-rule="evenodd" d="M1132.8 0.820007C1130.98 1.55001 1110 23.355 1110 24.52C1110 24.904 1113.28 25.053 1117.29 24.851C1123.94 24.514 1124.96 24.165 1129.05 20.814L1133.53 17.146L1136.96 23.573L1140.4 30H1152.86H1165.32L1176.56 18.25L1187.79 6.5L1180.77 6.20401C1173 5.87601 1170.01 7.273 1163 14.5C1161.13 16.425 1159.34 18 1159.02 18C1158.7 18 1156.24 13.95 1153.55 9L1148.68 0L1141.59 0.0700073C1137.69 0.109007 1133.74 0.446007 1132.8 0.820007ZM1228 39.528C1216.46 42.118 1205.56 48.297 1196.42 57.432C1187.31 66.542 1182.86 74.447 1180.46 85.754C1176.08 106.447 1182.83 123.317 1198.71 131.381C1209.28 136.745 1229.42 137.756 1242.58 133.583C1262.89 127.143 1279.63 109.786 1284.61 90C1286.56 82.262 1286.06 68.901 1283.58 62.075C1280.19 52.775 1272.02 45.118 1260.95 40.867C1253.81 38.124 1237.25 37.451 1228 39.528ZM528.912 39.986C518.902 40.568 516.435 41.076 510.789 43.718C502.67 47.517 497.402 52.209 492.077 60.382C488.692 65.577 456 133.599 456 135.446C456 136.316 482.353 136.063 483.743 135.18C484.426 134.746 492.195 119.133 501.007 100.485C509.819 81.837 518.234 65.322 519.707 63.784C521.181 62.246 523.987 60.543 525.943 59.999C530.787 58.654 543 58.705 543 60.071C543 60.66 541.346 66.496 539.324 73.039L535.649 84.936L525.074 85.218L514.5 85.5L509.758 95L505.017 104.5L517.008 104.781C523.604 104.935 529 105.324 529 105.644C529 105.964 526.975 112.625 524.5 120.447C522.025 128.268 520 134.967 520 135.334C520 136.278 547.779 136.166 548.365 135.219C549.037 134.132 578 40.946 578 39.872C578 38.888 546.535 38.961 528.912 39.986ZM587.52 68.75C579.98 85.113 573.109 101.327 572.253 104.783C567.554 123.749 580.871 135.467 606.917 135.283C628.393 135.131 642.168 129.823 655.603 116.522C664.877 107.342 670.05 98.148 672.496 86.5C674.332 77.753 674.348 73.896 672.575 67.236C669.786 56.758 663.798 49.465 653.844 44.421C645.744 40.316 637.343 39.037 618.366 39.017L601.231 39L587.52 68.75ZM706.013 40.66C703.214 45.274 662.307 134.585 662.688 135.25C662.925 135.663 668.892 136 675.948 136C686.752 136 689.089 135.724 690.743 134.25C691.824 133.288 700.031 116.525 708.98 97C717.929 77.475 725.7 60.938 726.248 60.25C727.487 58.697 744.242 58.524 747.066 60.035C748.13 60.605 748.983 61.842 748.963 62.785C748.942 63.728 741.572 80.25 732.585 99.5C723.599 118.75 716.442 134.837 716.682 135.25C717.32 136.347 741.818 136.168 743.905 135.051C744.907 134.514 752.976 118.321 762.466 97.801C771.699 77.835 779.701 60.938 780.249 60.25C781.486 58.697 798.242 58.524 801.066 60.035C802.13 60.605 803 61.827 803 62.751C803 63.675 795.751 79.951 786.891 98.918C778.031 117.886 770.558 133.989 770.284 134.703C769.584 136.526 795.861 136.57 798.277 134.75C800.512 133.066 825.6 78.631 827.496 71.353C829.387 64.095 829.384 61.34 827.48 55.944C825.179 49.422 821.615 45.448 815.29 42.353C809.879 39.706 808.675 39.53 793.531 39.176L777.5 38.801L772.61 42.553C768.208 45.931 767.509 46.172 765.61 44.963C757.214 39.621 756.856 39.561 731.315 39.18C708.684 38.843 707.058 38.938 706.013 40.66ZM858.334 39.773C857.008 40.616 814 132.707 814 134.702C814 135.699 816.99 136 826.889 136C837.726 136 840.101 135.721 841.805 134.25C843.387 132.883 870.031 76.885 884.627 44.25L886.975 39L873.237 39.015C865.682 39.024 858.975 39.365 858.334 39.773ZM918.315 40.008C903.103 42.232 891.61 48.167 886.529 56.422C883.942 60.626 883.5 62.328 883.5 68.098C883.5 73.379 883.955 75.469 885.588 77.677C889.186 82.543 898.385 89.274 909.947 95.5C934.497 108.72 936.879 110.548 933.699 113.731C932.111 115.321 929.136 115.533 904.364 115.822L876.797 116.145L872.485 125.322C870.113 130.37 868.473 134.817 868.842 135.206C869.21 135.594 883.459 135.537 900.506 135.081C927.762 134.35 932.284 133.998 938 132.161C951.012 127.979 958.801 120.717 961.049 110.671C963.75 98.602 957.646 91.213 935 79.138C910.992 66.337 907.756 63.848 910.954 60.644C911.731 59.866 920.948 59.34 939.754 59L967.413 58.5L971.64 50C973.966 45.325 975.898 40.938 975.934 40.25C975.985 39.277 970.181 39.028 949.75 39.125C935.313 39.193 921.167 39.591 918.315 40.008ZM1013 40.495C997.087 43.232 987.391 48.831 982.679 58.007C980.275 62.687 979.912 64.426 980.226 69.75C980.563 75.455 980.94 76.357 984.547 80.073C989.765 85.448 998.734 91.339 1014.02 99.43C1029.7 107.73 1032.92 110.183 1031.39 112.683C1029.71 115.442 1026.57 115.754 999.187 115.882L973.873 116L969.437 125.366C966.996 130.517 965 135.076 965 135.496C965 136.807 1021.81 134.988 1029.5 133.432C1038.95 131.518 1048.1 126.863 1052.49 121.735C1056.91 116.579 1059.43 108.566 1058.48 102.713C1057.4 96.079 1048.46 87.964 1033.5 80.045C1008.25 66.68 1004.24 63.704 1007.67 60.855C1008.92 59.816 1015.74 59.383 1036.9 59L1064.5 58.5L1068.68 50C1070.98 45.325 1072.89 40.938 1072.93 40.25C1073.03 38.494 1023.46 38.697 1013 40.495ZM1125.72 40.052C1111.7 41.683 1100.11 49.861 1092.43 63.531C1088.13 71.188 1059 132.732 1059 134.163C1059 134.656 1065.31 134.931 1073.12 134.777L1087.25 134.5L1103.37 100.331C1112.24 81.537 1120.4 65.163 1121.5 63.943C1124.72 60.371 1129.32 59 1138.08 59C1144.79 59 1146.12 59.254 1145.66 60.458C1145.35 61.26 1143.48 67.095 1141.5 73.424L1137.91 84.933L1127.21 85.217L1116.5 85.5L1112.32 94C1110.02 98.675 1108.11 103.063 1108.07 103.75C1108.02 104.682 1110.93 105 1119.5 105C1128.04 105 1131 105.321 1130.98 106.25C1130.97 106.938 1128.99 113.688 1126.58 121.25L1122.2 135H1136.52H1150.84L1152.87 128.75C1153.99 125.313 1160.35 104.95 1166.99 83.5C1173.64 62.05 1179.49 43.262 1179.99 41.75L1180.9 39L1156.7 39.131C1143.39 39.204 1129.45 39.618 1125.72 40.052ZM1231.76 58.996C1220.79 62.3 1209.15 77.6 1205.44 93.603C1202.63 105.701 1205.49 113.975 1213.2 116.06C1219.14 117.665 1230.5 116.767 1236.2 114.242C1242.88 111.28 1250.37 103.005 1255.25 93.186C1258.97 85.719 1259.43 83.962 1259.82 75.938C1260.55 60.698 1258 57.942 1243.3 58.086C1238.46 58.133 1233.27 58.543 1231.76 58.996ZM618.151 64.75C610.772 79.496 597 109.767 597 111.241C597 114.339 601.029 116 608.541 116C622.241 116 631.375 111.181 638.827 100.021C647.172 87.525 650.068 73.903 646.115 65.738C644.933 63.297 642.834 60.79 641.438 60.154C640.045 59.519 634.884 59 629.967 59H621.029L618.151 64.75ZM749.015 169.191C744.061 172.558 743.032 175.288 743.015 185.102C743.002 192.421 743.341 194.211 745.287 197.102C749.667 203.611 760.124 204.542 766.352 198.977C766.352 198.977 768 197 768.5 195.5C769 194 770.424 189.482 770.5 185.5C770.584 181.099 769.5 176.5 768.5 174.406C767.524 172.945 766.319 170.857 766.319 170.857C763.727 168.266 762.151 167.597 757.819 167.249C753.432 166.897 751.889 167.237 749.015 169.191ZM839.329 168.402C835.54 170.116 834 172.677 834 177.26C834 181.814 836.894 184.321 845.249 187.005C848.96 188.197 852.389 189.873 852.868 190.728C854.324 193.33 852.966 195.856 849.495 197.002C845.299 198.386 841.481 197.427 839.09 194.388C836.592 191.211 833 191.175 833 194.326C833 199.715 841.515 203.591 849.909 202.022C855.554 200.968 859 197.337 859 192.444C859 187.989 856.7 185.761 849.365 183.11C839.317 179.479 837.349 177.482 840.447 174.059C843.366 170.833 848.484 171.312 851.978 175.137C853.806 177.138 855.415 178.055 856.422 177.668C858.881 176.725 858.287 173.649 855.047 170.545C851.487 167.134 844.297 166.154 839.329 168.402ZM1090.45 168.406C1085.99 170.349 1083.95 174.183 1083.32 181.811C1082.36 193.512 1085.43 199.962 1092.94 201.983C1100.99 204.153 1109.24 200.078 1110.6 193.25C1111.2 190.258 1111.05 190 1108.68 190C1106.86 190 1105.72 190.805 1104.79 192.741C1102.87 196.758 1098.82 198.424 1094.46 196.988C1089.84 195.461 1089 193.549 1089 184.52C1089 177.773 1089.28 176.631 1091.46 174.455C1095.81 170.097 1102.92 171.474 1104.87 177.052C1105.71 179.469 1106.45 180.075 1108.22 179.822C1110.05 179.562 1110.46 178.928 1110.29 176.628C1109.77 169.243 1098.88 164.733 1090.45 168.406ZM586.447 180.25C583.851 186.987 581.113 194.017 580.363 195.872C578.422 200.674 578.645 202 581.391 202C583.248 202 584.141 201.105 585.383 198L586.984 194H594.383H601.783L603.383 198C604.655 201.178 605.499 202 607.492 202C608.871 202 610.006 201.663 610.014 201.25C610.022 200.837 607.238 193.188 603.828 184.25L597.628 168H594.398C591.191 168 591.135 168.086 586.447 180.25ZM637 181.05C637 195.279 637.88 198.527 642.386 200.939C645.687 202.706 652.662 202.834 656.559 201.199C661.997 198.918 663 195.786 663 181.096V168H660.5H658V178.851C658 184.819 657.517 191.086 656.927 192.778C655.614 196.545 651.245 198.424 647.294 196.922C642.611 195.141 642.066 193.415 642.032 180.25L642 168H639.5H637V181.05ZM691.18 170.25C691.453 172.17 692.197 172.545 696.25 172.805L701 173.11V187.621V202.133L703.75 201.816L706.5 201.5L706.777 187.304L707.054 173.107L711.777 172.804C715.803 172.545 716.547 172.168 716.82 170.25C717.137 168.015 717.054 168 704 168C690.946 168 690.863 168.015 691.18 170.25ZM888 185V202H899.57C910.996 202 911.135 201.972 910.82 199.75C910.52 197.639 909.961 197.482 901.75 197.211L893 196.922V192.002V187.081L901.25 186.79C908.737 186.527 909.5 186.315 909.5 184.5C909.5 182.685 908.737 182.473 901.25 182.21L893 181.919V176.96V172H902C910.333 172 911 171.852 911 170C911 168.116 910.333 168 899.5 168H888V185ZM940 185V202H942.5C944.91 202 945 201.767 945 195.5V189H949.287C953.513 189 953.627 189.092 957.312 195.5C960.327 200.742 961.53 202 963.525 202C966.79 202 966.659 200.961 962.496 193.857L958.991 187.878L961.996 185.35C964.556 183.196 964.995 182.134 964.968 178.161C964.912 169.993 961.794 168 949.066 168H940V185ZM991.555 170.25C991.934 171.487 994.552 179.025 997.372 187C1002.42 201.269 1002.55 201.505 1005.65 201.806C1009.19 202.15 1008.38 203.701 1015.98 182.082C1018.19 175.802 1020 170.065 1020 169.332C1020 168.588 1018.93 168 1017.57 168C1014.97 168 1014.07 169.828 1009.01 185.5C1007.77 189.35 1006.44 192.843 1006.07 193.262C1005.69 193.681 1003.38 188.169 1000.94 181.015C996.657 168.467 996.4 168.006 993.683 168.003C991.223 168 990.953 168.286 991.555 170.25ZM1048.23 184.75L1048.5 201.5H1051H1053.5L1053.77 184.75L1054.05 168H1051H1047.95L1048.23 184.75ZM1140 185V202H1151.57C1163 202 1163.14 201.972 1162.82 199.75C1162.52 197.639 1161.96 197.482 1153.75 197.211L1145 196.922V192.002V187.081L1153.25 186.79C1160.74 186.527 1161.5 186.315 1161.5 184.5C1161.5 182.685 1160.74 182.473 1153.25 182.21L1145 181.919V176.96V172H1154C1162.33 172 1163 171.852 1163 170C1163 168.116 1162.33 168 1151.5 168H1140V185ZM751.088 174.406C748.039 177.652 747.124 186.968 749.335 192.26C751.736 198.005 757.54 199.361 762.206 195.267C765.964 191.969 765.655 177.62 761.747 173.979C758.788 171.222 753.895 171.419 751.088 174.406ZM945.458 173.248C945.137 174.086 945.015 176.735 945.187 179.136L945.5 183.5L951.424 183.373C955.89 183.277 957.674 182.799 958.674 181.431C962.087 176.763 959.3 173.093 951.749 172.314C947.182 171.842 945.926 172.029 945.458 173.248ZM593.365 176.607C592.99 177.648 591.855 180.654 590.842 183.287C589.829 185.92 589 188.507 589 189.037C589 189.567 591.475 190 594.5 190C597.525 190 600 189.785 600 189.523C600 188.741 594.981 175.647 594.495 175.161C594.249 174.915 593.74 175.566 593.365 176.607Z" fill="white"/>
<path d="M0.898926 81.5663L95.4813 43.5875C147.5 22.6984 191.213 5.54732 192.617 5.47435C195.002 5.34883 195.173 8.52043 195.173 52.7753V100.21H175.461H155.75V81.81C155.75 67.6627 155.328 63.5832 153.925 64.1612C152.922 64.5742 132.482 72.5331 108.504 81.8465C84.5262 91.1613 63.949 99.3187 62.778 99.9741C61.3486 100.774 82.2032 109.482 126.085 126.406C162.075 140.288 192.344 152.678 193.348 153.939C195.176 156.235 196.114 195.112 194.384 196.843C193.949 197.276 150.421 180.393 97.6525 159.326L1.70927 121.021L1.30481 101.293L0.898926 81.5663Z" fill="white"/>
<path d="M205.523 48.6725C204.523 47.6727 203.933 39.276 203.933 26.0408V5L207.218 5.68746C212.047 6.70038 394.148 79.7783 396.342 81.5853C397.722 82.7208 398.103 88.0467 397.803 102.029L397.397 120.937L301.04 159.469C248.046 180.661 204.516 198 204.309 198C204.103 198 203.933 176.326 203.933 149.835V101.67H223.645H243.356V119.914C243.356 129.949 243.655 138.159 244.022 138.159C245.418 138.159 336.122 102.822 337.078 101.905C337.632 101.374 308.617 89.5383 272.6 75.6011C236.583 61.6654 206.399 49.5482 205.523 48.6725Z" fill="white"/>
</svg>
