<svg width="432" height="207" viewBox="0 0 432 207" fill="none" xmlns="http://www.w3.org/2000/svg">
<path d="M221.641 0C221.641 34.0666 221.641 68.1333 221.641 103.232C234.942 103.232 248.244 103.232 261.949 103.232C261.949 89.1071 261.949 74.9819 261.949 60.4286C265.634 62.0709 269.32 63.7133 273.118 65.4053C296.712 75.8374 320.252 86.1977 344.611 94.7345C346.384 95.3564 348.157 95.9784 349.983 96.6192C361.986 100.714 361.986 100.714 367.756 100.714C367.756 102.376 367.756 104.038 367.756 105.75C366.031 106.039 364.305 106.327 362.527 106.625C354.019 108.523 346.228 111.347 338.067 114.415C335.611 115.335 335.611 115.335 333.105 116.273C327.804 118.263 322.509 120.267 317.214 122.274C313.576 123.645 309.938 125.017 306.3 126.388C285.629 134.197 265.001 142.11 244.471 150.285C242.404 151.106 240.337 151.927 238.207 152.774C224.482 158.303 224.482 158.303 221.641 161.143C221.423 164.524 221.371 167.915 221.395 171.303C221.407 174.358 221.407 174.358 221.419 177.475C221.451 180.685 221.451 180.685 221.483 183.961C221.495 186.111 221.506 188.262 221.518 190.477C221.548 195.806 221.593 201.135 221.641 206.464C243.442 201.195 263.892 193.538 284.622 185.063C287.929 183.723 291.237 182.385 294.546 181.049C303.02 177.621 311.486 174.174 319.95 170.724C327.876 167.497 335.811 164.292 343.745 161.084C426.556 127.554 426.556 127.554 430.737 123.375C431.259 116.72 431.554 110.211 431.682 103.547C431.776 101.7 431.87 99.8534 431.967 97.9506C432.056 92.551 432.056 92.551 430.737 83.0894C425.217 78.3586 425.217 78.3586 418.141 75.5358C415.038 74.2456 415.038 74.2456 411.872 72.9294C408.351 71.649 408.351 71.649 404.758 70.3427C389.222 64.5048 373.922 58.2078 358.624 51.7735C327.728 38.8034 296.622 26.3772 265.485 13.9964C263.618 13.2531 261.75 12.5099 259.826 11.7441C256.294 10.3387 252.76 8.9354 249.226 7.53445C230.282 0 230.282 0 221.641 0Z" fill="#313131" fill-opacity="0.07"/>
<path d="M208.952 0C195.833 4.38152 183.17 8.63401 170.407 13.7585C166.027 15.5114 166.027 15.5114 161.56 17.2998C158.442 18.5554 155.324 19.8113 152.206 21.0674C148.931 22.3818 145.655 23.6956 142.379 25.009C135.541 27.752 128.704 30.4991 121.87 33.2498C113.197 36.74 104.521 40.2229 95.8435 43.7029C87.4595 47.0657 79.0772 50.4326 70.6949 53.7996C67.6235 55.0327 64.5522 56.2658 61.3877 57.5363C52.7735 61.003 44.1674 64.4892 35.5638 67.9822C31.2517 69.7167 31.2517 69.7167 26.8525 71.4862C22.77 73.1506 22.77 73.1506 18.6049 74.8485C16.1815 75.8306 13.7581 76.8126 11.2613 77.8244C5.4093 80.5715 5.4093 80.5715 0.38356 85.6072C0.0192413 92.1049 -0.0857849 98.321 0.069458 104.806C0.0921326 106.585 0.114807 108.363 0.138168 110.196C0.197418 114.589 0.287552 118.982 0.38356 123.375C13.9662 130.369 27.5869 136.568 41.7871 142.18C43.7875 142.979 45.788 143.778 47.849 144.602C54.3256 147.186 60.807 149.759 67.2888 152.331C71.7793 154.118 76.2694 155.907 80.7593 157.696C87.5698 160.41 94.3805 163.124 101.193 165.834C115.461 171.512 129.709 177.238 143.941 183.007C147.419 184.414 150.897 185.82 154.374 187.226C159.238 189.193 164.1 191.163 168.958 193.144C173.37 194.942 177.786 196.725 182.204 198.508C184.656 199.504 187.109 200.5 189.636 201.527C196.388 203.947 196.388 203.947 208.952 206.464C208.952 172.398 208.952 138.331 208.952 103.232C171.259 103.232 171.259 103.232 168.746 105.75C168.562 112.122 168.514 118.423 168.589 124.791C168.6 126.581 168.612 128.371 168.623 130.216C168.653 134.65 168.698 139.084 168.746 143.518C165.947 142.421 163.149 141.324 160.265 140.194C156.391 138.678 152.517 137.164 148.643 135.65C146.611 134.855 144.579 134.061 142.486 133.242C127.263 127.309 111.989 121.523 96.6384 115.929C86.8039 112.293 77.5688 107.987 68.2311 103.232C69.5493 102.724 70.8676 102.216 72.2257 101.692C86.0903 96.345 99.9527 90.9922 113.814 85.6361C118.97 83.6446 124.126 81.6546 129.284 79.666C155.979 69.3717 182.631 59.068 208.952 47.8393C208.952 32.0524 208.952 16.2654 208.952 0Z" fill="#313131" fill-opacity="0.07"/>
</svg>
